solid OpenSCAD_Model
  facet normal -0.99863 -0.052336 0
    outer loop
      vertex -9.94522 -1.04528 2
      vertex -10 5.6655e-015 2
      vertex -10 5.6655e-015 -2
    endloop
  endfacet
  facet normal -0.99863 -0.052336 0
    outer loop
      vertex -9.94522 -1.04528 -2
      vertex -9.94522 -1.04528 2
      vertex -10 5.6655e-015 -2
    endloop
  endfacet
  facet normal 0 0 -1
    outer loop
      vertex -9.78148 -2.07912 -2
      vertex -9.94522 -1.04528 -2
      vertex -4.93634 1.65 -2
    endloop
  endfacet
  facet normal 0 0 -1
    outer loop
      vertex -9.94522 -1.04528 -2
      vertex -10 5.6655e-015 -2
      vertex -4.93634 1.65 -2
    endloop
  endfacet
  facet normal 0 0 -1
    outer loop
      vertex -10 5.6655e-015 -2
      vertex -9.94522 1.04528 -2
      vertex -4.93634 1.65 -2
    endloop
  endfacet
  facet normal 0 0 -1
    outer loop
      vertex -9.94522 1.04528 -2
      vertex -9.78148 2.07912 -2
      vertex -4.93634 1.65 -2
    endloop
  endfacet
  facet normal 0 0 -1
    outer loop
      vertex -9.78148 2.07912 -2
      vertex -9.51057 3.09017 -2
      vertex -4.93634 1.65 -2
    endloop
  endfacet
  facet normal 0 0 -1
    outer loop
      vertex -9.51057 3.09017 -2
      vertex -9.13545 4.06737 -2
      vertex -4.93634 1.65 -2
    endloop
  endfacet
  facet normal 0 0 -1
    outer loop
      vertex -9.13545 4.06737 -2
      vertex -8.66025 5 -2
      vertex -4.93634 1.65 -2
    endloop
  endfacet
  facet normal 0 0 -1
    outer loop
      vertex -8.66025 5 -2
      vertex -8.09017 5.87785 -2
      vertex -4.93634 1.65 -2
    endloop
  endfacet
  facet normal 0 0 -1
    outer loop
      vertex -8.09017 5.87785 -2
      vertex -7.43145 6.69131 -2
      vertex -4.93634 1.65 -2
    endloop
  endfacet
  facet normal 0 0 -1
    outer loop
      vertex -7.43145 6.69131 -2
      vertex -6.69131 7.43145 -2
      vertex -4.93634 1.65 -2
    endloop
  endfacet
  facet normal 0 -0 -1
    outer loop
      vertex -4.06737 9.13545 -2
      vertex 9.99201e-016 4.5 -2
      vertex -5 8.66025 -2
    endloop
  endfacet
  facet normal 0 0 -1
    outer loop
      vertex -4 46.2451 -2
      vertex 4 46.2451 -2
      vertex -4 9.16131 -2
    endloop
  endfacet
  facet normal 0 -0 -1
    outer loop
      vertex 4 46.2451 -2
      vertex 4 9.16131 -2
      vertex -4 9.16131 -2
    endloop
  endfacet
  facet normal 0 0 -1
    outer loop
      vertex -5.87785 8.09017 -2
      vertex -5 8.66025 -2
      vertex 9.99201e-016 4.5 -2
    endloop
  endfacet
  facet normal 0 0 -1
    outer loop
      vertex 9.99201e-016 4.5 -2
      vertex -4.06737 9.13545 -2
      vertex -4 9.16131 -2
    endloop
  endfacet
  facet normal -0 0 -1
    outer loop
      vertex 4.06737 9.13545 -2
      vertex 9.99201e-016 4.5 -2
      vertex 4 9.16131 -2
    endloop
  endfacet
  facet normal 0 0 -1
    outer loop
      vertex -4 9.16131 -2
      vertex 4 9.16131 -2
      vertex 9.99201e-016 4.5 -2
    endloop
  endfacet
  facet normal 0 0 -1
    outer loop
      vertex 9.99201e-016 4.5 -2
      vertex 5 8.66025 -2
      vertex 5.87785 8.09017 -2
    endloop
  endfacet
  facet normal 0 0 -1
    outer loop
      vertex 4.93634 1.65 -2
      vertex 5.87785 8.09017 -2
      vertex 6.69131 7.43145 -2
    endloop
  endfacet
  facet normal 0 0 -1
    outer loop
      vertex 4.93634 1.65 -2
      vertex 6.69131 7.43145 -2
      vertex 7.43145 6.69131 -2
    endloop
  endfacet
  facet normal 0 0 -1
    outer loop
      vertex 4.93634 1.65 -2
      vertex 7.43145 6.69131 -2
      vertex 8.09017 5.87785 -2
    endloop
  endfacet
  facet normal 0 0 -1
    outer loop
      vertex 4.93634 1.65 -2
      vertex 8.09017 5.87785 -2
      vertex 8.66025 5 -2
    endloop
  endfacet
  facet normal 0 0 -1
    outer loop
      vertex 4.93634 1.65 -2
      vertex 8.66025 5 -2
      vertex 9.13545 4.06737 -2
    endloop
  endfacet
  facet normal 0 0 -1
    outer loop
      vertex 4.93634 1.65 -2
      vertex 9.13545 4.06737 -2
      vertex 9.51057 3.09017 -2
    endloop
  endfacet
  facet normal 0 0 -1
    outer loop
      vertex 4.93634 1.65 -2
      vertex 9.51057 3.09017 -2
      vertex 9.78148 2.07912 -2
    endloop
  endfacet
  facet normal 0 0 -1
    outer loop
      vertex 4.93634 1.65 -2
      vertex 9.78148 2.07912 -2
      vertex 9.94522 1.04528 -2
    endloop
  endfacet
  facet normal 0 0 -1
    outer loop
      vertex 4.93634 1.65 -2
      vertex 9.94522 1.04528 -2
      vertex 10 0 -2
    endloop
  endfacet
  facet normal 0 0 -1
    outer loop
      vertex 9.11883 -4.1 -2
      vertex 4.84974 -4.1 -2
      vertex 4.93634 -4.05 -2
    endloop
  endfacet
  facet normal -0 0 -1
    outer loop
      vertex 9.51057 -3.09017 -2
      vertex 4.93634 -4.05 -2
      vertex 9.78148 -2.07912 -2
    endloop
  endfacet
  facet normal 0 0 -1
    outer loop
      vertex 9.13545 -4.06737 -2
      vertex 4.93634 -4.05 -2
      vertex 9.51057 -3.09017 -2
    endloop
  endfacet
  facet normal 0 0 -1
    outer loop
      vertex 9.11883 -4.1 -2
      vertex 4.93634 -4.05 -2
      vertex 9.13545 -4.06737 -2
    endloop
  endfacet
  facet normal 0 0 -1
    outer loop
      vertex 9.78148 -2.07912 -2
      vertex 4.93634 1.65 -2
      vertex 9.94522 -1.04528 -2
    endloop
  endfacet
  facet normal 0 0 -1
    outer loop
      vertex 4.93634 1.65 -2
      vertex 10 0 -2
      vertex 9.94522 -1.04528 -2
    endloop
  endfacet
  facet normal 0 0 -1
    outer loop
      vertex 4.93634 -4.05 -2
      vertex 4.93634 1.65 -2
      vertex 9.78148 -2.07912 -2
    endloop
  endfacet
  facet normal 0 0 -1
    outer loop
      vertex 9.99201e-016 4.5 -2
      vertex 4.06737 9.13545 -2
      vertex 5 8.66025 -2
    endloop
  endfacet
  facet normal 0 0 -1
    outer loop
      vertex 4.93634 1.65 -2
      vertex 9.99201e-016 4.5 -2
      vertex 5.87785 8.09017 -2
    endloop
  endfacet
  facet normal 0 0 -1
    outer loop
      vertex -4.93634 1.65 -2
      vertex -6.69131 7.43145 -2
      vertex -5.87785 8.09017 -2
    endloop
  endfacet
  facet normal 0 0 -1
    outer loop
      vertex -4.93634 1.65 -2
      vertex -5.87785 8.09017 -2
      vertex 9.99201e-016 4.5 -2
    endloop
  endfacet
  facet normal 0 0 -1
    outer loop
      vertex -4.84974 -4.1 -2
      vertex -9.11883 -4.1 -2
      vertex -4.93634 -4.05 -2
    endloop
  endfacet
  facet normal 0 0 -1
    outer loop
      vertex -9.78148 -2.07912 -2
      vertex -4.93634 1.65 -2
      vertex -4.93634 -4.05 -2
    endloop
  endfacet
  facet normal 0 0 -1
    outer loop
      vertex -9.11883 -4.1 -2
      vertex -9.13545 -4.06737 -2
      vertex -4.93634 -4.05 -2
    endloop
  endfacet
  facet normal 0 0 -1
    outer loop
      vertex -9.13545 -4.06737 -2
      vertex -9.51057 -3.09017 -2
      vertex -4.93634 -4.05 -2
    endloop
  endfacet
  facet normal 0 0 -1
    outer loop
      vertex -9.51057 -3.09017 -2
      vertex -9.78148 -2.07912 -2
      vertex -4.93634 -4.05 -2
    endloop
  endfacet
  facet normal -0.93358 -0.358368 0
    outer loop
      vertex -9.13545 -4.06737 2
      vertex -9.51057 -3.09017 2
      vertex -9.51057 -3.09017 -2
    endloop
  endfacet
  facet normal -0.93358 -0.358368 0
    outer loop
      vertex -9.13545 -4.06737 -2
      vertex -9.13545 -4.06737 2
      vertex -9.51057 -3.09017 -2
    endloop
  endfacet
  facet normal -0.891007 -0.45399 0
    outer loop
      vertex -9.11883 -4.1 2
      vertex -9.13545 -4.06737 2
      vertex -9.13545 -4.06737 -2
    endloop
  endfacet
  facet normal -0.891007 -0.45399 0
    outer loop
      vertex -9.11883 -4.1 -2
      vertex -9.11883 -4.1 2
      vertex -9.13545 -4.06737 -2
    endloop
  endfacet
  facet normal 0 0 1
    outer loop
      vertex -4.93634 1.65 2
      vertex -9.78148 -2.07912 2
      vertex -4.93634 -4.05 2
    endloop
  endfacet
  facet normal 0 0 1
    outer loop
      vertex -4.93634 1.65 2
      vertex -9.94522 1.04528 2
      vertex -10 5.6655e-015 2
    endloop
  endfacet
  facet normal 0 0 1
    outer loop
      vertex -9.11883 -4.1 2
      vertex -4.84974 -4.1 2
      vertex -4.93634 -4.05 2
    endloop
  endfacet
  facet normal -0 -0 1
    outer loop
      vertex -9.51057 -3.09017 2
      vertex -4.93634 -4.05 2
      vertex -9.78148 -2.07912 2
    endloop
  endfacet
  facet normal 0 -0 1
    outer loop
      vertex -9.13545 -4.06737 2
      vertex -4.93634 -4.05 2
      vertex -9.51057 -3.09017 2
    endloop
  endfacet
  facet normal 0 -0 1
    outer loop
      vertex -9.11883 -4.1 2
      vertex -4.93634 -4.05 2
      vertex -9.13545 -4.06737 2
    endloop
  endfacet
  facet normal 0 -0 1
    outer loop
      vertex -9.78148 -2.07912 2
      vertex -4.93634 1.65 2
      vertex -9.94522 -1.04528 2
    endloop
  endfacet
  facet normal 0 0 1
    outer loop
      vertex -4.93634 1.65 2
      vertex -10 5.6655e-015 2
      vertex -9.94522 -1.04528 2
    endloop
  endfacet
  facet normal 0 0 1
    outer loop
      vertex -9.78148 2.07912 2
      vertex -9.94522 1.04528 2
      vertex -4.93634 1.65 2
    endloop
  endfacet
  facet normal 0 0 1
    outer loop
      vertex 4.84974 -4.1 2
      vertex 9.11883 -4.1 2
      vertex 4.93634 -4.05 2
    endloop
  endfacet
  facet normal 0 0 1
    outer loop
      vertex 9.78148 -2.07912 2
      vertex 4.93634 1.65 2
      vertex 4.93634 -4.05 2
    endloop
  endfacet
  facet normal 0 -0 1
    outer loop
      vertex 9.11883 -4.1 2
      vertex 9.13545 -4.06737 2
      vertex 4.93634 -4.05 2
    endloop
  endfacet
  facet normal 0 -0 1
    outer loop
      vertex 9.13545 -4.06737 2
      vertex 9.51057 -3.09017 2
      vertex 4.93634 -4.05 2
    endloop
  endfacet
  facet normal 0 -0 1
    outer loop
      vertex 9.51057 -3.09017 2
      vertex 9.78148 -2.07912 2
      vertex 4.93634 -4.05 2
    endloop
  endfacet
  facet normal 0 -0 1
    outer loop
      vertex 9.78148 -2.07912 2
      vertex 9.94522 -1.04528 2
      vertex 4.93634 1.65 2
    endloop
  endfacet
  facet normal 0 0 1
    outer loop
      vertex 5.87785 8.09017 2
      vertex 9.99201e-016 4.5 2
      vertex 4.93634 1.65 2
    endloop
  endfacet
  facet normal 0 -0 1
    outer loop
      vertex 9.94522 -1.04528 2
      vertex 10 0 2
      vertex 4.93634 1.65 2
    endloop
  endfacet
  facet normal 0 0 1
    outer loop
      vertex 10 0 2
      vertex 9.94522 1.04528 2
      vertex 4.93634 1.65 2
    endloop
  endfacet
  facet normal 0 0 1
    outer loop
      vertex 9.94522 1.04528 2
      vertex 9.78148 2.07912 2
      vertex 4.93634 1.65 2
    endloop
  endfacet
  facet normal 0 0 1
    outer loop
      vertex 9.78148 2.07912 2
      vertex 9.51057 3.09017 2
      vertex 4.93634 1.65 2
    endloop
  endfacet
  facet normal 0 0 1
    outer loop
      vertex 9.51057 3.09017 2
      vertex 9.13545 4.06737 2
      vertex 4.93634 1.65 2
    endloop
  endfacet
  facet normal 0 0 1
    outer loop
      vertex 9.13545 4.06737 2
      vertex 8.66025 5 2
      vertex 4.93634 1.65 2
    endloop
  endfacet
  facet normal 0 0 1
    outer loop
      vertex 8.66025 5 2
      vertex 8.09017 5.87785 2
      vertex 4.93634 1.65 2
    endloop
  endfacet
  facet normal 0 0 1
    outer loop
      vertex 8.09017 5.87785 2
      vertex 7.43145 6.69131 2
      vertex 4.93634 1.65 2
    endloop
  endfacet
  facet normal 0 0 1
    outer loop
      vertex 7.43145 6.69131 2
      vertex 6.69131 7.43145 2
      vertex 4.93634 1.65 2
    endloop
  endfacet
  facet normal 0 0 1
    outer loop
      vertex -5.87785 8.09017 2
      vertex -4.93634 1.65 2
      vertex 9.99201e-016 4.5 2
    endloop
  endfacet
  facet normal 0 0 1
    outer loop
      vertex 6.69131 7.43145 2
      vertex 5.87785 8.09017 2
      vertex 4.93634 1.65 2
    endloop
  endfacet
  facet normal 0 0 1
    outer loop
      vertex 5.87785 8.09017 2
      vertex 5 8.66025 2
      vertex 9.99201e-016 4.5 2
    endloop
  endfacet
  facet normal 0 0 1
    outer loop
      vertex 5 8.66025 2
      vertex 4.06737 9.13545 2
      vertex 9.99201e-016 4.5 2
    endloop
  endfacet
  facet normal 0 0 1
    outer loop
      vertex 4.06737 9.13545 2
      vertex 4 9.16131 2
      vertex 9.99201e-016 4.5 2
    endloop
  endfacet
  facet normal 0 0 1
    outer loop
      vertex 4 46.2451 2
      vertex -4 46.2451 2
      vertex -4 9.16131 2
    endloop
  endfacet
  facet normal 0 0 1
    outer loop
      vertex 4 46.2451 2
      vertex -4 9.16131 2
      vertex 4 9.16131 2
    endloop
  endfacet
  facet normal 0 0 1
    outer loop
      vertex 4 9.16131 2
      vertex -4 9.16131 2
      vertex 9.99201e-016 4.5 2
    endloop
  endfacet
  facet normal 0 0 1
    outer loop
      vertex -4 9.16131 2
      vertex -4.06737 9.13545 2
      vertex 9.99201e-016 4.5 2
    endloop
  endfacet
  facet normal 0 0 1
    outer loop
      vertex -4.06737 9.13545 2
      vertex -5 8.66025 2
      vertex 9.99201e-016 4.5 2
    endloop
  endfacet
  facet normal 0 0 1
    outer loop
      vertex -5 8.66025 2
      vertex -5.87785 8.09017 2
      vertex 9.99201e-016 4.5 2
    endloop
  endfacet
  facet normal 0 0 1
    outer loop
      vertex -5.87785 8.09017 2
      vertex -6.69131 7.43145 2
      vertex -4.93634 1.65 2
    endloop
  endfacet
  facet normal 0 0 1
    outer loop
      vertex -6.69131 7.43145 2
      vertex -7.43145 6.69131 2
      vertex -4.93634 1.65 2
    endloop
  endfacet
  facet normal 0 0 1
    outer loop
      vertex -7.43145 6.69131 2
      vertex -8.09017 5.87785 2
      vertex -4.93634 1.65 2
    endloop
  endfacet
  facet normal 0 0 1
    outer loop
      vertex -8.09017 5.87785 2
      vertex -8.66025 5 2
      vertex -4.93634 1.65 2
    endloop
  endfacet
  facet normal 0 0 1
    outer loop
      vertex -8.66025 5 2
      vertex -9.13545 4.06737 2
      vertex -4.93634 1.65 2
    endloop
  endfacet
  facet normal 0 0 1
    outer loop
      vertex -9.13545 4.06737 2
      vertex -9.51057 3.09017 2
      vertex -4.93634 1.65 2
    endloop
  endfacet
  facet normal 0 0 1
    outer loop
      vertex -9.51057 3.09017 2
      vertex -9.78148 2.07912 2
      vertex -4.93634 1.65 2
    endloop
  endfacet
  facet normal 0.99863 -0.052336 0
    outer loop
      vertex 10 0 -2
      vertex 9.94522 -1.04528 2
      vertex 9.94522 -1.04528 -2
    endloop
  endfacet
  facet normal 0.99863 -0.052336 0
    outer loop
      vertex 10 0 -2
      vertex 10 0 2
      vertex 9.94522 -1.04528 2
    endloop
  endfacet
  facet normal 0.93358 0.358368 0
    outer loop
      vertex 9.51057 3.09017 2
      vertex 9.51057 3.09017 -2
      vertex 9.13545 4.06737 -2
    endloop
  endfacet
  facet normal 0.93358 0.358368 0
    outer loop
      vertex 9.13545 4.06737 2
      vertex 9.51057 3.09017 2
      vertex 9.13545 4.06737 -2
    endloop
  endfacet
  facet normal -0.777146 0.62932 0
    outer loop
      vertex -8.09017 5.87785 2
      vertex -7.43145 6.69131 -2
      vertex -8.09017 5.87785 -2
    endloop
  endfacet
  facet normal -0.777146 0.62932 0
    outer loop
      vertex -8.09017 5.87785 2
      vertex -7.43145 6.69131 2
      vertex -7.43145 6.69131 -2
    endloop
  endfacet
  facet normal -0.987688 -0.156434 0
    outer loop
      vertex -9.78148 -2.07912 2
      vertex -9.94522 -1.04528 2
      vertex -9.94522 -1.04528 -2
    endloop
  endfacet
  facet normal -0.987688 -0.156434 0
    outer loop
      vertex -9.78148 -2.07912 -2
      vertex -9.78148 -2.07912 2
      vertex -9.94522 -1.04528 -2
    endloop
  endfacet
  facet normal 0.358368 0.93358 0
    outer loop
      vertex 4 9.16131 2
      vertex 4.06737 9.13545 -2
      vertex 4 9.16131 -2
    endloop
  endfacet
  facet normal 0.358368 0.93358 0
    outer loop
      vertex 4 9.16131 2
      vertex 4.06737 9.13545 2
      vertex 4.06737 9.13545 -2
    endloop
  endfacet
  facet normal -0.93358 0.358368 0
    outer loop
      vertex -9.51057 3.09017 2
      vertex -9.13545 4.06737 -2
      vertex -9.51057 3.09017 -2
    endloop
  endfacet
  facet normal -0.93358 0.358368 0
    outer loop
      vertex -9.51057 3.09017 2
      vertex -9.13545 4.06737 2
      vertex -9.13545 4.06737 -2
    endloop
  endfacet
  facet normal -0.99863 0.052336 0
    outer loop
      vertex -10 5.6655e-015 2
      vertex -9.94522 1.04528 -2
      vertex -10 5.6655e-015 -2
    endloop
  endfacet
  facet normal -0.99863 0.052336 0
    outer loop
      vertex -10 5.6655e-015 2
      vertex -9.94522 1.04528 2
      vertex -9.94522 1.04528 -2
    endloop
  endfacet
  facet normal 0.93358 -0.358368 0
    outer loop
      vertex 9.51057 -3.09017 -2
      vertex 9.13545 -4.06737 2
      vertex 9.13545 -4.06737 -2
    endloop
  endfacet
  facet normal 0.93358 -0.358368 0
    outer loop
      vertex 9.51057 -3.09017 -2
      vertex 9.51057 -3.09017 2
      vertex 9.13545 -4.06737 2
    endloop
  endfacet
  facet normal 0.987688 0.156434 0
    outer loop
      vertex 9.94522 1.04528 2
      vertex 9.94522 1.04528 -2
      vertex 9.78148 2.07912 -2
    endloop
  endfacet
  facet normal 0.987688 0.156434 0
    outer loop
      vertex 9.78148 2.07912 2
      vertex 9.94522 1.04528 2
      vertex 9.78148 2.07912 -2
    endloop
  endfacet
  facet normal 0.99863 0.052336 0
    outer loop
      vertex 10 0 2
      vertex 10 0 -2
      vertex 9.94522 1.04528 -2
    endloop
  endfacet
  facet normal 0.99863 0.052336 0
    outer loop
      vertex 9.94522 1.04528 2
      vertex 10 0 2
      vertex 9.94522 1.04528 -2
    endloop
  endfacet
  facet normal -0.358368 0.93358 0
    outer loop
      vertex -4.06737 9.13545 2
      vertex -4 9.16131 -2
      vertex -4.06737 9.13545 -2
    endloop
  endfacet
  facet normal -0.358368 0.93358 0
    outer loop
      vertex -4.06737 9.13545 2
      vertex -4 9.16131 2
      vertex -4 9.16131 -2
    endloop
  endfacet
  facet normal -0.62932 0.777146 0
    outer loop
      vertex -6.69131 7.43145 2
      vertex -5.87785 8.09017 -2
      vertex -6.69131 7.43145 -2
    endloop
  endfacet
  facet normal -0.62932 0.777146 0
    outer loop
      vertex -6.69131 7.43145 2
      vertex -5.87785 8.09017 2
      vertex -5.87785 8.09017 -2
    endloop
  endfacet
  facet normal -0.965926 -0.258819 0
    outer loop
      vertex -9.51057 -3.09017 2
      vertex -9.78148 -2.07912 2
      vertex -9.78148 -2.07912 -2
    endloop
  endfacet
  facet normal -0.965926 -0.258819 0
    outer loop
      vertex -9.51057 -3.09017 -2
      vertex -9.51057 -3.09017 2
      vertex -9.78148 -2.07912 -2
    endloop
  endfacet
  facet normal -0.965926 0.258819 0
    outer loop
      vertex -9.78148 2.07912 2
      vertex -9.51057 3.09017 -2
      vertex -9.78148 2.07912 -2
    endloop
  endfacet
  facet normal -0.965926 0.258819 0
    outer loop
      vertex -9.78148 2.07912 2
      vertex -9.51057 3.09017 2
      vertex -9.51057 3.09017 -2
    endloop
  endfacet
  facet normal 0.891007 -0.45399 0
    outer loop
      vertex 9.13545 -4.06737 -2
      vertex 9.11883 -4.1 2
      vertex 9.11883 -4.1 -2
    endloop
  endfacet
  facet normal 0.891007 -0.45399 0
    outer loop
      vertex 9.13545 -4.06737 -2
      vertex 9.13545 -4.06737 2
      vertex 9.11883 -4.1 2
    endloop
  endfacet
  facet normal 0.987688 -0.156434 0
    outer loop
      vertex 9.94522 -1.04528 -2
      vertex 9.78148 -2.07912 2
      vertex 9.78148 -2.07912 -2
    endloop
  endfacet
  facet normal 0.987688 -0.156434 0
    outer loop
      vertex 9.94522 -1.04528 -2
      vertex 9.94522 -1.04528 2
      vertex 9.78148 -2.07912 2
    endloop
  endfacet
  facet normal 0.62932 0.777146 0
    outer loop
      vertex 5.87785 8.09017 2
      vertex 6.69131 7.43145 -2
      vertex 5.87785 8.09017 -2
    endloop
  endfacet
  facet normal 0.62932 0.777146 0
    outer loop
      vertex 5.87785 8.09017 2
      vertex 6.69131 7.43145 2
      vertex 6.69131 7.43145 -2
    endloop
  endfacet
  facet normal 0.707107 0.707107 0
    outer loop
      vertex 6.69131 7.43145 2
      vertex 7.43145 6.69131 -2
      vertex 6.69131 7.43145 -2
    endloop
  endfacet
  facet normal 0.707107 0.707107 0
    outer loop
      vertex 6.69131 7.43145 2
      vertex 7.43145 6.69131 2
      vertex 7.43145 6.69131 -2
    endloop
  endfacet
  facet normal 0.965926 0.258819 0
    outer loop
      vertex 9.78148 2.07912 2
      vertex 9.78148 2.07912 -2
      vertex 9.51057 3.09017 -2
    endloop
  endfacet
  facet normal 0.965926 0.258819 0
    outer loop
      vertex 9.51057 3.09017 2
      vertex 9.78148 2.07912 2
      vertex 9.51057 3.09017 -2
    endloop
  endfacet
  facet normal 0.777146 0.62932 0
    outer loop
      vertex 8.09017 5.87785 2
      vertex 8.09017 5.87785 -2
      vertex 7.43145 6.69131 -2
    endloop
  endfacet
  facet normal 0.777146 0.62932 0
    outer loop
      vertex 7.43145 6.69131 2
      vertex 8.09017 5.87785 2
      vertex 7.43145 6.69131 -2
    endloop
  endfacet
  facet normal 0.838671 0.544639 0
    outer loop
      vertex 8.66025 5 2
      vertex 8.66025 5 -2
      vertex 8.09017 5.87785 -2
    endloop
  endfacet
  facet normal 0.838671 0.544639 0
    outer loop
      vertex 8.09017 5.87785 2
      vertex 8.66025 5 2
      vertex 8.09017 5.87785 -2
    endloop
  endfacet
  facet normal 0.891007 0.45399 0
    outer loop
      vertex 9.13545 4.06737 2
      vertex 9.13545 4.06737 -2
      vertex 8.66025 5 -2
    endloop
  endfacet
  facet normal 0.891007 0.45399 0
    outer loop
      vertex 8.66025 5 2
      vertex 9.13545 4.06737 2
      vertex 8.66025 5 -2
    endloop
  endfacet
  facet normal -0.45399 0.891007 0
    outer loop
      vertex -5 8.66025 2
      vertex -4.06737 9.13545 -2
      vertex -5 8.66025 -2
    endloop
  endfacet
  facet normal -0.45399 0.891007 0
    outer loop
      vertex -5 8.66025 2
      vertex -4.06737 9.13545 2
      vertex -4.06737 9.13545 -2
    endloop
  endfacet
  facet normal -0.544639 0.838671 0
    outer loop
      vertex -5.87785 8.09017 2
      vertex -5 8.66025 -2
      vertex -5.87785 8.09017 -2
    endloop
  endfacet
  facet normal -0.544639 0.838671 0
    outer loop
      vertex -5.87785 8.09017 2
      vertex -5 8.66025 2
      vertex -5 8.66025 -2
    endloop
  endfacet
  facet normal -0.838671 0.544639 0
    outer loop
      vertex -8.66025 5 2
      vertex -8.09017 5.87785 -2
      vertex -8.66025 5 -2
    endloop
  endfacet
  facet normal -0.838671 0.544639 0
    outer loop
      vertex -8.66025 5 2
      vertex -8.09017 5.87785 2
      vertex -8.09017 5.87785 -2
    endloop
  endfacet
  facet normal -0.891007 0.45399 0
    outer loop
      vertex -9.13545 4.06737 2
      vertex -8.66025 5 -2
      vertex -9.13545 4.06737 -2
    endloop
  endfacet
  facet normal -0.891007 0.45399 0
    outer loop
      vertex -9.13545 4.06737 2
      vertex -8.66025 5 2
      vertex -8.66025 5 -2
    endloop
  endfacet
  facet normal -0.987688 0.156434 0
    outer loop
      vertex -9.94522 1.04528 2
      vertex -9.78148 2.07912 -2
      vertex -9.94522 1.04528 -2
    endloop
  endfacet
  facet normal -0.987688 0.156434 0
    outer loop
      vertex -9.94522 1.04528 2
      vertex -9.78148 2.07912 2
      vertex -9.78148 2.07912 -2
    endloop
  endfacet
  facet normal 0.965926 -0.258819 0
    outer loop
      vertex 9.78148 -2.07912 -2
      vertex 9.51057 -3.09017 2
      vertex 9.51057 -3.09017 -2
    endloop
  endfacet
  facet normal 0.965926 -0.258819 0
    outer loop
      vertex 9.78148 -2.07912 -2
      vertex 9.78148 -2.07912 2
      vertex 9.51057 -3.09017 2
    endloop
  endfacet
  facet normal 0.45399 0.891007 0
    outer loop
      vertex 4.06737 9.13545 2
      vertex 5 8.66025 -2
      vertex 4.06737 9.13545 -2
    endloop
  endfacet
  facet normal 0.45399 0.891007 0
    outer loop
      vertex 4.06737 9.13545 2
      vertex 5 8.66025 2
      vertex 5 8.66025 -2
    endloop
  endfacet
  facet normal -0.707107 0.707107 0
    outer loop
      vertex -7.43145 6.69131 2
      vertex -6.69131 7.43145 -2
      vertex -7.43145 6.69131 -2
    endloop
  endfacet
  facet normal -0.707107 0.707107 0
    outer loop
      vertex -7.43145 6.69131 2
      vertex -6.69131 7.43145 2
      vertex -6.69131 7.43145 -2
    endloop
  endfacet
  facet normal 0.544639 0.838671 0
    outer loop
      vertex 5 8.66025 2
      vertex 5.87785 8.09017 -2
      vertex 5 8.66025 -2
    endloop
  endfacet
  facet normal 0.544639 0.838671 0
    outer loop
      vertex 5 8.66025 2
      vertex 5.87785 8.09017 2
      vertex 5.87785 8.09017 -2
    endloop
  endfacet
  facet normal 1 -3.11642e-016 0
    outer loop
      vertex -4.93634 -4.05 2
      vertex -4.93634 1.65 -2
      vertex -4.93634 1.65 2
    endloop
  endfacet
  facet normal 1 -3.11642e-016 0
    outer loop
      vertex -4.93634 -4.05 2
      vertex -4.93634 -4.05 -2
      vertex -4.93634 1.65 -2
    endloop
  endfacet
  facet normal -0.5 0.866025 0
    outer loop
      vertex 4.93634 -4.05 -2
      vertex 4.84974 -4.1 2
      vertex 4.93634 -4.05 2
    endloop
  endfacet
  facet normal -0.5 0.866025 0
    outer loop
      vertex 4.93634 -4.05 -2
      vertex 4.84974 -4.1 -2
      vertex 4.84974 -4.1 2
    endloop
  endfacet
  facet normal 0.5 0.866025 -0
    outer loop
      vertex -4.84974 -4.1 -2
      vertex -4.93634 -4.05 2
      vertex -4.84974 -4.1 2
    endloop
  endfacet
  facet normal 0.5 0.866025 0
    outer loop
      vertex -4.84974 -4.1 -2
      vertex -4.93634 -4.05 -2
      vertex -4.93634 -4.05 2
    endloop
  endfacet
  facet normal 0.5 -0.866025 0
    outer loop
      vertex -4.93634 1.65 2
      vertex 9.99201e-016 4.5 -2
      vertex 9.99201e-016 4.5 2
    endloop
  endfacet
  facet normal 0.5 -0.866025 0
    outer loop
      vertex -4.93634 1.65 2
      vertex -4.93634 1.65 -2
      vertex 9.99201e-016 4.5 -2
    endloop
  endfacet
  facet normal -1 3.11642e-016 0
    outer loop
      vertex 4.93634 1.65 -2
      vertex 4.93634 -4.05 2
      vertex 4.93634 1.65 2
    endloop
  endfacet
  facet normal -1 3.11642e-016 0
    outer loop
      vertex 4.93634 1.65 -2
      vertex 4.93634 -4.05 -2
      vertex 4.93634 -4.05 2
    endloop
  endfacet
  facet normal -0.5 -0.866025 0
    outer loop
      vertex 9.99201e-016 4.5 2
      vertex 4.93634 1.65 -2
      vertex 4.93634 1.65 2
    endloop
  endfacet
  facet normal -0.5 -0.866025 -0
    outer loop
      vertex 9.99201e-016 4.5 2
      vertex 9.99201e-016 4.5 -2
      vertex 4.93634 1.65 -2
    endloop
  endfacet
  facet normal 0 -1 0
    outer loop
      vertex -9.11883 -4.1 2
      vertex -4.84974 -4.1 -2
      vertex -4.84974 -4.1 2
    endloop
  endfacet
  facet normal 0 -1 0
    outer loop
      vertex -9.11883 -4.1 2
      vertex -9.11883 -4.1 -2
      vertex -4.84974 -4.1 -2
    endloop
  endfacet
  facet normal 0 -1 0
    outer loop
      vertex 4.84974 -4.1 2
      vertex 9.11883 -4.1 -2
      vertex 9.11883 -4.1 2
    endloop
  endfacet
  facet normal 0 -1 0
    outer loop
      vertex 4.84974 -4.1 2
      vertex 4.84974 -4.1 -2
      vertex 9.11883 -4.1 -2
    endloop
  endfacet
  facet normal -1 0 0
    outer loop
      vertex -4 9.16131 2
      vertex -4 46.2451 -2
      vertex -4 9.16131 -2
    endloop
  endfacet
  facet normal -1 0 0
    outer loop
      vertex -4 9.16131 2
      vertex -4 46.2451 2
      vertex -4 46.2451 -2
    endloop
  endfacet
  facet normal -1 0 0
    outer loop
      vertex -4 46.2451 2
      vertex -4 56 -0.279955
      vertex -4 46.2451 -2
    endloop
  endfacet
  facet normal -1 -0 -0
    outer loop
      vertex -4 56 0.279955
      vertex -4 56 -0.279955
      vertex -4 46.2451 2
    endloop
  endfacet
  facet normal 0 1 0
    outer loop
      vertex -4 56 0.279955
      vertex 4 56 -0.279955
      vertex -4 56 -0.279955
    endloop
  endfacet
  facet normal -0 1 0
    outer loop
      vertex -4 56 0.279955
      vertex 4 56 0.279955
      vertex 4 56 -0.279955
    endloop
  endfacet
  facet normal 1 0 0
    outer loop
      vertex 4 46.2451 -2
      vertex 4 9.16131 2
      vertex 4 9.16131 -2
    endloop
  endfacet
  facet normal 1 0 -0
    outer loop
      vertex 4 46.2451 -2
      vertex 4 46.2451 2
      vertex 4 9.16131 2
    endloop
  endfacet
  facet normal 1 0 -0
    outer loop
      vertex 4 56 -0.279955
      vertex 4 56 0.279955
      vertex 4 46.2451 -2
    endloop
  endfacet
  facet normal 1 0 0
    outer loop
      vertex 4 56 0.279955
      vertex 4 46.2451 2
      vertex 4 46.2451 -2
    endloop
  endfacet
  facet normal -0 0.173648 0.984808
    outer loop
      vertex -4 56 0.279955
      vertex 4 46.2451 2
      vertex 4 56 0.279955
    endloop
  endfacet
  facet normal 0 0.173648 0.984808
    outer loop
      vertex -4 56 0.279955
      vertex -4 46.2451 2
      vertex 4 46.2451 2
    endloop
  endfacet
  facet normal 0 0.173648 -0.984808
    outer loop
      vertex 4 46.2451 -2
      vertex -4 56 -0.279955
      vertex 4 56 -0.279955
    endloop
  endfacet
  facet normal 0 0.173648 -0.984808
    outer loop
      vertex 4 46.2451 -2
      vertex -4 46.2451 -2
      vertex -4 56 -0.279955
    endloop
  endfacet
endsolid OpenSCAD_Model
